# xmcd
#
# Track frame offsets:
#	150
#	21314
#	47335
#	68835
#	91080
#	106825
#	119342
#	137619
#	153462
#	175178
#
# Disc length: 2664 seconds
# Revision: 0
# Processed by: cddbd v1.5.2PL0 Copyright (c) Steve Scherf et al.
# Submitted via: dBpowerAMP V12.0
#
DISCID=770a660a
DTITLE=Jim Zeller - Circus
DYEAR=2015
DGENRE=Blues
TTITLE0=Down to the River
TTITLE1=Wild Life
TTITLE2=Bad Girl
TTITLE3=Ain't So Bad
TTITLE4=Halloween in Holywood with Johnny Depp
TTITLE5=One Step Closer to Vegas
TTITLE6=This Time
TTITLE7=Sweet Nanoo
TTITLE8=Midnight Train
TTITLE9=Soul of the Moon
EXTD=
EXTT0=
EXTT1=
EXTT2=
EXTT3=
EXTT4=
EXTT5=
EXTT6=
EXTT7=
EXTT8=
EXTT9=
PLAYORDER=
